<?xml version="1.0" standalone="no"?>
<!DOCTYPE svg PUBLIC "-//W3C//DTD SVG 20010904//EN"
 "http://www.w3.org/TR/2001/REC-SVG-20010904/DTD/svg10.dtd">
<svg version="1.0" xmlns="http://www.w3.org/2000/svg"
 width="400.000000pt" height="300.000000pt" viewBox="0 0 400.000000 300.000000"
 preserveAspectRatio="xMidYMid meet">

<g transform="translate(0.000000,300.000000) scale(0.100000,-0.100000)"
fill="#000000" stroke="none">
<path d="M0 1500 l0 -1500 2000 0 2000 0 0 1500 0 1500 -2000 0 -2000 0 0
-1500z m1968 0 l2 -545 -95 95 -95 95 0 212 0 213 -105 0 c-58 0 -105 -2 -105
-4 0 -3 20 -67 45 -144 25 -76 45 -142 45 -145 0 -3 -103 101 -230 231 l-229
237 289 3 290 2 0 55 0 55 -239 2 -240 3 86 93 85 92 247 -2 246 -3 3 -545z
m644 458 l87 -93 -240 -3 -239 -2 0 -55 0 -55 290 -2 289 -3 -229 -237 c-127
-130 -230 -234 -230 -230 0 4 20 69 45 146 25 76 45 140 45 142 0 2 -47 4
-105 4 l-105 0 0 -213 0 -212 -95 -95 -95 -95 0 541 c0 297 3 544 7 547 3 4
115 7 247 7 l241 1 87 -93z"/>
</g>
</svg>
